<mxfile host="app.diagrams.net" modified="2021-10-01T18:46:33.952Z" agent="5.0 (Windows NT 10.0; Win64; x64) AppleWebKit/537.36 (KHTML, like Gecko) Chrome/93.0.4577.82 Safari/537.36 OPR/79.0.4143.73" etag="YanWGD600FLu3CzAhIQz" version="15.4.1" type="github">
  <diagram id="C5RBs43oDa-KdzZeNtuy" name="Page-1">
    <mxGraphModel dx="1151" dy="663" grid="1" gridSize="10" guides="1" tooltips="1" connect="1" arrows="1" fold="1" page="1" pageScale="1" pageWidth="827" pageHeight="1169" math="0" shadow="0">
      <root>
        <mxCell id="WIyWlLk6GJQsqaUBKTNV-0" />
        <mxCell id="WIyWlLk6GJQsqaUBKTNV-1" parent="WIyWlLk6GJQsqaUBKTNV-0" />
        <mxCell id="cbYJ1F5IivzObAT33s2f-0" value="" style="rounded=1;whiteSpace=wrap;html=1;sketch=0;" vertex="1" parent="WIyWlLk6GJQsqaUBKTNV-1">
          <mxGeometry x="40" y="40" width="320" height="350" as="geometry" />
        </mxCell>
        <mxCell id="cbYJ1F5IivzObAT33s2f-6" value="&lt;font color=&quot;#000000&quot;&gt;HTML5&lt;/font&gt;" style="rounded=1;whiteSpace=wrap;html=1;sketch=0;" vertex="1" parent="WIyWlLk6GJQsqaUBKTNV-1">
          <mxGeometry x="70" y="100" width="80" height="30" as="geometry" />
        </mxCell>
        <mxCell id="cbYJ1F5IivzObAT33s2f-7" value="&lt;font color=&quot;#000000&quot;&gt;CSS3&lt;/font&gt;" style="rounded=1;whiteSpace=wrap;html=1;sketch=0;" vertex="1" parent="WIyWlLk6GJQsqaUBKTNV-1">
          <mxGeometry x="160" y="100" width="80" height="30" as="geometry" />
        </mxCell>
        <mxCell id="cbYJ1F5IivzObAT33s2f-8" value="&lt;font color=&quot;#000000&quot;&gt;Javascript&lt;/font&gt;" style="rounded=1;whiteSpace=wrap;html=1;sketch=0;" vertex="1" parent="WIyWlLk6GJQsqaUBKTNV-1">
          <mxGeometry x="250" y="100" width="80" height="30" as="geometry" />
        </mxCell>
        <mxCell id="cbYJ1F5IivzObAT33s2f-9" value="node.js" style="rounded=1;whiteSpace=wrap;html=1;sketch=0;" vertex="1" parent="WIyWlLk6GJQsqaUBKTNV-1">
          <mxGeometry x="70" y="290" width="260" height="70" as="geometry" />
        </mxCell>
        <mxCell id="cbYJ1F5IivzObAT33s2f-10" value="&lt;font color=&quot;#ffffff&quot; style=&quot;font-size: 20px&quot;&gt;Front-end&lt;/font&gt;" style="text;html=1;strokeColor=none;fillColor=none;align=center;verticalAlign=middle;whiteSpace=wrap;rounded=0;sketch=0;strokeWidth=2;" vertex="1" parent="WIyWlLk6GJQsqaUBKTNV-1">
          <mxGeometry x="150" y="60" width="105" height="30" as="geometry" />
        </mxCell>
        <mxCell id="cbYJ1F5IivzObAT33s2f-11" value="&lt;font color=&quot;#ffffff&quot; style=&quot;font-size: 20px&quot;&gt;Back-end&lt;/font&gt;" style="text;html=1;strokeColor=none;fillColor=none;align=center;verticalAlign=middle;whiteSpace=wrap;rounded=0;sketch=0;strokeWidth=2;" vertex="1" parent="WIyWlLk6GJQsqaUBKTNV-1">
          <mxGeometry x="147.5" y="250" width="105" height="30" as="geometry" />
        </mxCell>
        <mxCell id="cbYJ1F5IivzObAT33s2f-13" value="&lt;font color=&quot;#ffffff&quot; style=&quot;font-size: 20px&quot;&gt;Framework&lt;/font&gt;" style="text;html=1;strokeColor=none;fillColor=none;align=center;verticalAlign=middle;whiteSpace=wrap;rounded=0;sketch=0;strokeWidth=2;" vertex="1" parent="WIyWlLk6GJQsqaUBKTNV-1">
          <mxGeometry x="147.5" y="140" width="105" height="30" as="geometry" />
        </mxCell>
        <mxCell id="cbYJ1F5IivzObAT33s2f-14" value="&lt;font color=&quot;#000000&quot;&gt;electron.js&lt;/font&gt;" style="rounded=1;whiteSpace=wrap;html=1;sketch=0;" vertex="1" parent="WIyWlLk6GJQsqaUBKTNV-1">
          <mxGeometry x="70" y="180" width="260" height="60" as="geometry" />
        </mxCell>
        <mxCell id="cbYJ1F5IivzObAT33s2f-17" value="&lt;font color=&quot;#000000&quot; style=&quot;font-size: 13px ; line-height: 2.5&quot;&gt;Option 1&lt;/font&gt;" style="shape=singleArrow;whiteSpace=wrap;html=1;rounded=0;sketch=0;fontSize=20;strokeWidth=2;" vertex="1" parent="WIyWlLk6GJQsqaUBKTNV-1">
          <mxGeometry x="370" y="180" width="90" height="60" as="geometry" />
        </mxCell>
        <mxCell id="cbYJ1F5IivzObAT33s2f-18" value="" style="rounded=1;whiteSpace=wrap;html=1;sketch=0;" vertex="1" parent="WIyWlLk6GJQsqaUBKTNV-1">
          <mxGeometry x="470" y="100" width="320" height="230" as="geometry" />
        </mxCell>
        <mxCell id="cbYJ1F5IivzObAT33s2f-19" value="&lt;font color=&quot;#000000&quot;&gt;C#&lt;/font&gt;" style="rounded=1;whiteSpace=wrap;html=1;sketch=0;" vertex="1" parent="WIyWlLk6GJQsqaUBKTNV-1">
          <mxGeometry x="500" y="160" width="80" height="30" as="geometry" />
        </mxCell>
        <mxCell id="cbYJ1F5IivzObAT33s2f-20" value="&lt;font color=&quot;#ffffff&quot; style=&quot;font-size: 20px&quot;&gt;Game&lt;/font&gt;" style="text;html=1;strokeColor=none;fillColor=none;align=center;verticalAlign=middle;whiteSpace=wrap;rounded=0;sketch=0;strokeWidth=2;" vertex="1" parent="WIyWlLk6GJQsqaUBKTNV-1">
          <mxGeometry x="577.5" y="70" width="105" height="30" as="geometry" />
        </mxCell>
        <mxCell id="cbYJ1F5IivzObAT33s2f-21" value="&lt;font color=&quot;#ffffff&quot; style=&quot;font-size: 20px&quot;&gt;Client&lt;/font&gt;" style="text;html=1;strokeColor=none;fillColor=none;align=center;verticalAlign=middle;whiteSpace=wrap;rounded=0;sketch=0;strokeWidth=2;" vertex="1" parent="WIyWlLk6GJQsqaUBKTNV-1">
          <mxGeometry x="145" y="10" width="105" height="30" as="geometry" />
        </mxCell>
        <mxCell id="cbYJ1F5IivzObAT33s2f-24" value="&lt;font style=&quot;font-size: 20px&quot;&gt;Technologies&lt;/font&gt;" style="text;html=1;strokeColor=none;fillColor=none;align=center;verticalAlign=middle;whiteSpace=wrap;rounded=0;sketch=0;strokeWidth=2;" vertex="1" parent="WIyWlLk6GJQsqaUBKTNV-1">
          <mxGeometry x="563.75" y="120" width="132.5" height="30" as="geometry" />
        </mxCell>
        <mxCell id="cbYJ1F5IivzObAT33s2f-25" value="&lt;font style=&quot;font-size: 20px&quot;&gt;Framework&lt;/font&gt;" style="text;html=1;strokeColor=none;fillColor=none;align=center;verticalAlign=middle;whiteSpace=wrap;rounded=0;sketch=0;strokeWidth=2;" vertex="1" parent="WIyWlLk6GJQsqaUBKTNV-1">
          <mxGeometry x="577.5" y="200" width="105" height="30" as="geometry" />
        </mxCell>
        <mxCell id="cbYJ1F5IivzObAT33s2f-27" value="&lt;font color=&quot;#000000&quot;&gt;Unity 5&lt;/font&gt;" style="rounded=1;whiteSpace=wrap;html=1;sketch=0;" vertex="1" parent="WIyWlLk6GJQsqaUBKTNV-1">
          <mxGeometry x="500" y="240" width="260" height="60" as="geometry" />
        </mxCell>
        <mxCell id="cbYJ1F5IivzObAT33s2f-28" value="&lt;font style=&quot;font-size: 9px&quot;&gt;&lt;font color=&quot;#000000&quot; style=&quot;font-size: 9px&quot;&gt;Blender/&lt;/font&gt;&lt;span style=&quot;color: rgb(0 , 0 , 0)&quot;&gt;Aseprite&lt;/span&gt;&lt;/font&gt;" style="rounded=1;whiteSpace=wrap;html=1;sketch=0;" vertex="1" parent="WIyWlLk6GJQsqaUBKTNV-1">
          <mxGeometry x="590" y="160" width="80" height="30" as="geometry" />
        </mxCell>
        <mxCell id="cbYJ1F5IivzObAT33s2f-29" value="&lt;font color=&quot;#000000&quot;&gt;Adobe Au&lt;/font&gt;" style="rounded=1;whiteSpace=wrap;html=1;sketch=0;" vertex="1" parent="WIyWlLk6GJQsqaUBKTNV-1">
          <mxGeometry x="680" y="160" width="80" height="30" as="geometry" />
        </mxCell>
        <mxCell id="cbYJ1F5IivzObAT33s2f-58" value="" style="rounded=1;whiteSpace=wrap;html=1;sketch=0;" vertex="1" parent="WIyWlLk6GJQsqaUBKTNV-1">
          <mxGeometry x="470" y="460" width="320" height="230" as="geometry" />
        </mxCell>
        <mxCell id="cbYJ1F5IivzObAT33s2f-59" value="&lt;font color=&quot;#000000&quot;&gt;C++&lt;/font&gt;" style="rounded=1;whiteSpace=wrap;html=1;sketch=0;" vertex="1" parent="WIyWlLk6GJQsqaUBKTNV-1">
          <mxGeometry x="500" y="520" width="80" height="30" as="geometry" />
        </mxCell>
        <mxCell id="cbYJ1F5IivzObAT33s2f-60" value="&lt;font color=&quot;#ffffff&quot; style=&quot;font-size: 20px&quot;&gt;Game&lt;/font&gt;" style="text;html=1;strokeColor=none;fillColor=none;align=center;verticalAlign=middle;whiteSpace=wrap;rounded=0;sketch=0;strokeWidth=2;" vertex="1" parent="WIyWlLk6GJQsqaUBKTNV-1">
          <mxGeometry x="577.5" y="430" width="105" height="30" as="geometry" />
        </mxCell>
        <mxCell id="cbYJ1F5IivzObAT33s2f-61" value="&lt;font style=&quot;font-size: 20px&quot;&gt;Technologies&lt;/font&gt;" style="text;html=1;strokeColor=none;fillColor=none;align=center;verticalAlign=middle;whiteSpace=wrap;rounded=0;sketch=0;strokeWidth=2;" vertex="1" parent="WIyWlLk6GJQsqaUBKTNV-1">
          <mxGeometry x="563.75" y="480" width="132.5" height="30" as="geometry" />
        </mxCell>
        <mxCell id="cbYJ1F5IivzObAT33s2f-62" value="&lt;font style=&quot;font-size: 20px&quot;&gt;Framework&lt;/font&gt;" style="text;html=1;strokeColor=none;fillColor=none;align=center;verticalAlign=middle;whiteSpace=wrap;rounded=0;sketch=0;strokeWidth=2;" vertex="1" parent="WIyWlLk6GJQsqaUBKTNV-1">
          <mxGeometry x="577.5" y="560" width="105" height="30" as="geometry" />
        </mxCell>
        <mxCell id="cbYJ1F5IivzObAT33s2f-63" value="&lt;font color=&quot;#000000&quot;&gt;Unreal Engine 4&lt;/font&gt;" style="rounded=1;whiteSpace=wrap;html=1;sketch=0;" vertex="1" parent="WIyWlLk6GJQsqaUBKTNV-1">
          <mxGeometry x="500" y="600" width="260" height="60" as="geometry" />
        </mxCell>
        <mxCell id="cbYJ1F5IivzObAT33s2f-64" value="&lt;font style=&quot;font-size: 9px&quot;&gt;&lt;font color=&quot;#000000&quot; style=&quot;font-size: 9px&quot;&gt;Blender/&lt;/font&gt;&lt;span style=&quot;color: rgb(0 , 0 , 0)&quot;&gt;Aseprite&lt;/span&gt;&lt;/font&gt;" style="rounded=1;whiteSpace=wrap;html=1;sketch=0;" vertex="1" parent="WIyWlLk6GJQsqaUBKTNV-1">
          <mxGeometry x="590" y="520" width="80" height="30" as="geometry" />
        </mxCell>
        <mxCell id="cbYJ1F5IivzObAT33s2f-65" value="&lt;font color=&quot;#000000&quot;&gt;Adobe Au&lt;/font&gt;" style="rounded=1;whiteSpace=wrap;html=1;sketch=0;" vertex="1" parent="WIyWlLk6GJQsqaUBKTNV-1">
          <mxGeometry x="680" y="520" width="80" height="30" as="geometry" />
        </mxCell>
        <mxCell id="cbYJ1F5IivzObAT33s2f-68" value="" style="shape=corner;whiteSpace=wrap;html=1;rounded=0;sketch=0;fontSize=13;strokeWidth=2;rotation=-90;" vertex="1" parent="WIyWlLk6GJQsqaUBKTNV-1">
          <mxGeometry x="232.5" y="362.5" width="175" height="265" as="geometry" />
        </mxCell>
        <mxCell id="cbYJ1F5IivzObAT33s2f-70" value="&lt;font style=&quot;font-size: 16px&quot;&gt;Option 2&lt;/font&gt;" style="text;html=1;strokeColor=none;fillColor=none;align=center;verticalAlign=middle;whiteSpace=wrap;rounded=0;sketch=0;strokeWidth=2;" vertex="1" parent="WIyWlLk6GJQsqaUBKTNV-1">
          <mxGeometry x="240" y="555" width="132.5" height="30" as="geometry" />
        </mxCell>
        <mxCell id="cbYJ1F5IivzObAT33s2f-91" value="&lt;div&gt;&lt;span&gt;	&lt;/span&gt;&lt;span style=&quot;white-space: pre&quot;&gt;	&lt;/span&gt;VENTAJAS&lt;br&gt;&lt;/div&gt;&lt;ul style=&quot;font-size: 14px&quot;&gt;&lt;li&gt;Facilidad en equipos de desarrollo pequeños&lt;/li&gt;&lt;li&gt;Mayor comunidad desarrolladora de plugins&lt;/li&gt;&lt;li&gt;Mayor simplicidad en el entendimiento y uso del lenguaje&lt;/li&gt;&lt;/ul&gt;&lt;div&gt;&lt;span style=&quot;font-size: 14px&quot;&gt;&lt;span&gt;	&lt;/span&gt;&lt;br&gt;&lt;/span&gt;&lt;/div&gt;&lt;span style=&quot;font-size: 14px&quot;&gt;	&lt;/span&gt;&lt;span style=&quot;white-space: pre&quot;&gt;	&lt;/span&gt;DESVENTAJAS&lt;ul style=&quot;font-size: 14px&quot;&gt;&lt;li&gt;Limitaciones gráficas a gran escala&lt;/li&gt;&lt;li&gt;Consume más memoria de procesamiento&lt;/li&gt;&lt;/ul&gt;&lt;div&gt;&lt;br&gt;&lt;/div&gt;&lt;div&gt;&lt;font style=&quot;font-size: 12px&quot;&gt;&lt;span&gt;	&lt;/span&gt;&lt;br&gt;&lt;/font&gt;&lt;/div&gt;" style="text;strokeColor=none;fillColor=none;html=1;whiteSpace=wrap;verticalAlign=top;overflow=hidden;rounded=0;sketch=0;" vertex="1" parent="WIyWlLk6GJQsqaUBKTNV-1">
          <mxGeometry x="780" y="85" width="280" height="250" as="geometry" />
        </mxCell>
        <mxCell id="cbYJ1F5IivzObAT33s2f-93" value="&lt;div&gt;&lt;span&gt;	&lt;/span&gt;&lt;span style=&quot;white-space: pre&quot;&gt;	&lt;/span&gt;VENTAJAS&lt;br&gt;&lt;/div&gt;&lt;ul style=&quot;font-size: 14px&quot;&gt;&lt;li&gt;Los &quot;blueprints&quot; facilitan la programación&lt;/li&gt;&lt;li&gt;Soporte propio de Unreal que ofrece tutoriales para desarrolladores&lt;/li&gt;&lt;li&gt;Gran motor de físicas y gráficos que se actualiza constantemente.&lt;/li&gt;&lt;/ul&gt;&lt;div&gt;&lt;span style=&quot;font-size: 14px&quot;&gt;&lt;span&gt;	&lt;/span&gt;&lt;br&gt;&lt;/span&gt;&lt;/div&gt;&lt;span style=&quot;font-size: 14px&quot;&gt;	&lt;/span&gt;&lt;span style=&quot;white-space: pre&quot;&gt;	&lt;/span&gt;DESVENTAJAS&lt;ul style=&quot;font-size: 14px&quot;&gt;&lt;li&gt;Los &quot;blueprints&quot; ralentizan y pueden hacer que el desarrollo sea un lío a largo plazo&lt;/li&gt;&lt;li&gt;El lenguaje C++ es más complicado de entender y usar&lt;/li&gt;&lt;li&gt;Requiere de una alta curva de aprendizaje&lt;/li&gt;&lt;/ul&gt;&lt;div&gt;&lt;br&gt;&lt;/div&gt;&lt;div&gt;&lt;font style=&quot;font-size: 12px&quot;&gt;&lt;span&gt;	&lt;/span&gt;&lt;br&gt;&lt;/font&gt;&lt;/div&gt;" style="text;strokeColor=none;fillColor=none;html=1;whiteSpace=wrap;verticalAlign=top;overflow=hidden;rounded=0;sketch=0;" vertex="1" parent="WIyWlLk6GJQsqaUBKTNV-1">
          <mxGeometry x="780" y="410" width="280" height="370" as="geometry" />
        </mxCell>
        <mxCell id="cbYJ1F5IivzObAT33s2f-94" value="https://www.youtube.com/watch?v=rXDK6InUaO4" style="text;html=1;strokeColor=none;fillColor=none;align=center;verticalAlign=middle;whiteSpace=wrap;rounded=0;sketch=0;fontSize=12;" vertex="1" parent="WIyWlLk6GJQsqaUBKTNV-1">
          <mxGeometry x="1121" y="190" width="240" height="50" as="geometry" />
        </mxCell>
        <mxCell id="cbYJ1F5IivzObAT33s2f-95" value="https://www.youtube.com/watch?v=DshYHUvLaDc" style="text;html=1;align=center;verticalAlign=middle;resizable=0;points=[];autosize=1;strokeColor=none;fillColor=none;fontSize=12;" vertex="1" parent="WIyWlLk6GJQsqaUBKTNV-1">
          <mxGeometry x="1140" y="560" width="280" height="20" as="geometry" />
        </mxCell>
      </root>
    </mxGraphModel>
  </diagram>
</mxfile>
